# Blender v2.79 (sub 0) OBJ File: ''
# www.blender.org
mtllib untitled.mtl
o Cube
v 1.000000 -0.933000 -0.933000
v 0.933000 -1.000000 -0.933000
v 0.933000 -0.933000 -1.000000
v 0.991049 -0.966456 -0.933000
v 0.991049 -0.933000 -0.966456
v 0.982354 -0.965040 -0.965040
v 0.933000 -0.991049 -0.966456
v 0.966456 -0.991049 -0.933000
v 0.965040 -0.982354 -0.965040
v 0.966456 -0.933000 -0.991049
v 0.933000 -0.966456 -0.991049
v 0.965040 -0.965040 -0.982354
v 1.000000 -0.933000 0.933000
v 0.933000 -0.933000 1.000000
v 0.933000 -1.000000 0.933000
v 0.991049 -0.933000 0.966456
v 0.991049 -0.966456 0.933000
v 0.982354 -0.965040 0.965040
v 0.933000 -0.966456 0.991049
v 0.966456 -0.933000 0.991049
v 0.965040 -0.965040 0.982354
v 0.966456 -0.991049 0.933000
v 0.933000 -0.991049 0.966456
v 0.965040 -0.982354 0.965040
v -0.933000 -0.933000 1.000000
v -1.000000 -0.933000 0.933000
v -0.933000 -1.000000 0.933000
v -0.966456 -0.933000 0.991049
v -0.933000 -0.966456 0.991049
v -0.965040 -0.965040 0.982354
v -0.991049 -0.966456 0.933000
v -0.991049 -0.933000 0.966456
v -0.982354 -0.965040 0.965040
v -0.933000 -0.991049 0.966456
v -0.966456 -0.991049 0.933000
v -0.965040 -0.982354 0.965040
v -0.933000 -0.933000 -1.000000
v -0.933000 -1.000000 -0.933000
v -1.000000 -0.933000 -0.933000
v -0.933000 -0.966456 -0.991049
v -0.966456 -0.933000 -0.991049
v -0.965040 -0.965040 -0.982355
v -0.966456 -0.991049 -0.933000
v -0.933000 -0.991049 -0.966456
v -0.965040 -0.982354 -0.965041
v -0.991049 -0.933000 -0.966456
v -0.991049 -0.966456 -0.933000
v -0.982354 -0.965040 -0.965041
v 0.933000 0.933000 -0.999999
v 0.933000 1.000000 -0.932999
v 1.000000 0.933000 -0.932999
v 0.933000 0.966456 -0.991048
v 0.966457 0.933000 -0.991048
v 0.965041 0.965040 -0.982354
v 0.966457 0.991049 -0.932999
v 0.933000 0.991049 -0.966455
v 0.965041 0.982354 -0.965040
v 0.991050 0.933000 -0.966455
v 0.991050 0.966456 -0.932999
v 0.982355 0.965040 -0.965040
v 0.932999 0.933000 1.000001
v 0.999999 0.933000 0.933001
v 0.932999 1.000000 0.933001
v 0.966455 0.933000 0.991050
v 0.932999 0.966456 0.991050
v 0.965039 0.965040 0.982355
v 0.991048 0.966456 0.933001
v 0.991048 0.933000 0.966457
v 0.982354 0.965040 0.965041
v 0.932999 0.991049 0.966457
v 0.966455 0.991049 0.933001
v 0.965040 0.982354 0.965041
v -1.000000 0.933000 0.933000
v -0.933000 0.933000 1.000000
v -0.933000 1.000000 0.933000
v -0.991049 0.933000 0.966456
v -0.991049 0.966456 0.933000
v -0.982355 0.965040 0.965040
v -0.933000 0.966456 0.991049
v -0.966456 0.933000 0.991049
v -0.965041 0.965040 0.982354
v -0.966456 0.991049 0.933000
v -0.933000 0.991049 0.966456
v -0.965041 0.982354 0.965040
v -1.000000 0.933000 -0.933000
v -0.933000 1.000000 -0.933000
v -0.933000 0.933000 -1.000000
v -0.991049 0.966456 -0.933000
v -0.991049 0.933000 -0.966456
v -0.982354 0.965040 -0.965040
v -0.933000 0.991049 -0.966456
v -0.966456 0.991049 -0.933000
v -0.965040 0.982354 -0.965040
v -0.966456 0.933000 -0.991049
v -0.933000 0.966456 -0.991049
v -0.965040 0.965040 -0.982354
vn 0.0000 0.0000 -1.0000
vn 0.0000 -1.0000 0.0000
vn -1.0000 -0.0000 -0.0000
vn 0.0000 1.0000 0.0000
vn -0.0000 -0.0000 1.0000
vn 0.9318 -0.2566 -0.2566
vn 0.6901 -0.6901 -0.2178
vn 0.2566 -0.9318 -0.2566
vn 0.2178 -0.6901 -0.6901
vn 0.2566 -0.2566 -0.9318
vn 0.6901 -0.2178 -0.6901
vn 0.5774 -0.5774 -0.5774
vn 0.9318 -0.2566 0.2566
vn 0.6901 -0.2178 0.6901
vn 0.2566 -0.2566 0.9318
vn 0.2178 -0.6901 0.6901
vn 0.2566 -0.9318 0.2566
vn 0.6901 -0.6901 0.2178
vn 0.5774 -0.5774 0.5774
vn -0.2566 -0.2566 0.9318
vn -0.6901 -0.2178 0.6901
vn -0.9318 -0.2566 0.2566
vn -0.6901 -0.6901 0.2178
vn -0.2566 -0.9318 0.2566
vn -0.2178 -0.6901 0.6901
vn -0.5774 -0.5773 0.5774
vn -0.2566 -0.2566 -0.9318
vn -0.2178 -0.6901 -0.6901
vn -0.2566 -0.9318 -0.2566
vn -0.6901 -0.6901 -0.2178
vn -0.9318 -0.2566 -0.2566
vn -0.6901 -0.2178 -0.6901
vn -0.5773 -0.5773 -0.5774
vn 0.2566 0.2566 -0.9318
vn 0.2178 0.6901 -0.6901
vn 0.2566 0.9318 -0.2566
vn 0.6901 0.6901 -0.2178
vn 0.9318 0.2566 -0.2566
vn 0.6901 0.2178 -0.6901
vn 0.5774 0.5774 -0.5774
vn 0.2566 0.2566 0.9318
vn 0.6901 0.2178 0.6901
vn 0.9318 0.2566 0.2566
vn 0.6901 0.6901 0.2178
vn 0.2566 0.9318 0.2566
vn 0.2178 0.6901 0.6901
vn 0.5773 0.5773 0.5774
vn -0.9318 0.2566 0.2566
vn -0.6901 0.2178 0.6901
vn -0.2566 0.2566 0.9318
vn -0.2178 0.6901 0.6901
vn -0.2566 0.9318 0.2566
vn -0.6901 0.6901 0.2178
vn -0.5773 0.5773 0.5774
vn -0.9318 0.2566 -0.2566
vn -0.6901 0.6901 -0.2178
vn -0.2566 0.9318 -0.2566
vn -0.2178 0.6901 -0.6901
vn -0.2566 0.2566 -0.9318
vn -0.6901 0.2178 -0.6901
vn -0.5774 0.5774 -0.5774
vn 0.9660 -0.2585 0.0000
vn 0.7071 -0.7071 0.0000
vn 0.2585 -0.9660 0.0000
vn 0.0000 -0.9660 -0.2585
vn 0.0000 -0.7071 -0.7071
vn 0.0000 -0.2585 -0.9660
vn 0.2585 0.0000 -0.9660
vn 0.7071 -0.0000 -0.7071
vn 0.9660 -0.0000 -0.2585
vn -0.0000 -0.2585 0.9660
vn -0.0000 -0.7071 0.7071
vn -0.0000 -0.9660 0.2585
vn 0.9660 0.0000 0.2585
vn 0.7071 0.0000 0.7071
vn 0.2585 -0.0000 0.9660
vn -0.9660 -0.2585 -0.0000
vn -0.7071 -0.7071 -0.0000
vn -0.2585 -0.9660 -0.0000
vn -0.2585 0.0000 0.9660
vn -0.7071 -0.0000 0.7071
vn -0.9660 -0.0000 0.2585
vn -0.9660 -0.0000 -0.2585
vn -0.7071 0.0000 -0.7071
vn -0.2585 0.0000 -0.9660
vn 0.2585 0.9660 0.0000
vn 0.7071 0.7071 0.0000
vn 0.9660 0.2585 0.0000
vn 0.0000 0.2585 -0.9660
vn 0.0000 0.7071 -0.7071
vn 0.0000 0.9660 -0.2585
vn -0.0000 0.9660 0.2585
vn -0.0000 0.7071 0.7071
vn -0.0000 0.2585 0.9660
vn -0.2585 0.9660 -0.0000
vn -0.7071 0.7071 -0.0000
vn -0.9660 0.2585 -0.0000
vn 1.0000 0.0000 0.0000
usemtl Material
s off
f 49//1 3//1 37//1 87//1
f 2//2 15//2 27//2 38//2
f 26//3 73//3 85//3 39//3
f 50//4 86//4 75//4 63//4
f 14//5 61//5 74//5 25//5
f 1//6 4//6 6//6 5//6
f 4//7 8//7 9//7 6//7
f 2//8 7//8 9//8 8//8
f 7//9 11//9 12//9 9//9
f 3//10 10//10 12//10 11//10
f 10//11 5//11 6//11 12//11
f 6//12 9//12 12//12
f 13//13 16//13 18//13 17//13
f 16//14 20//14 21//14 18//14
f 14//15 19//15 21//15 20//15
f 19//16 23//16 24//16 21//16
f 15//17 22//17 24//17 23//17
f 22//18 17//18 18//18 24//18
f 18//19 21//19 24//19
f 25//20 28//20 30//20 29//20
f 28//21 32//21 33//21 30//21
f 26//22 31//22 33//22 32//22
f 31//23 35//23 36//23 33//23
f 27//24 34//24 36//24 35//24
f 34//25 29//25 30//25 36//25
f 30//26 33//26 36//26
f 37//27 40//27 42//27 41//27
f 40//28 44//28 45//28 42//28
f 38//29 43//29 45//29 44//29
f 43//30 47//30 48//30 45//30
f 39//31 46//31 48//31 47//31
f 46//32 41//32 42//32 48//32
f 42//33 45//33 48//33
f 49//34 52//34 54//34 53//34
f 52//35 56//35 57//35 54//35
f 50//36 55//36 57//36 56//36
f 55//37 59//37 60//37 57//37
f 51//38 58//38 60//38 59//38
f 58//39 53//39 54//39 60//39
f 54//40 57//40 60//40
f 61//41 64//41 66//41 65//41
f 64//42 68//42 69//42 66//42
f 62//43 67//43 69//43 68//43
f 67//44 71//44 72//44 69//44
f 63//45 70//45 72//45 71//45
f 70//46 65//46 66//46 72//46
f 66//47 69//47 72//47
f 73//48 76//48 78//48 77//48
f 76//49 80//49 81//49 78//49
f 74//50 79//50 81//50 80//50
f 79//51 83//51 84//51 81//51
f 75//52 82//52 84//52 83//52
f 82//53 77//53 78//53 84//53
f 78//54 81//54 84//54
f 85//55 88//55 90//55 89//55
f 88//56 92//56 93//56 90//56
f 86//57 91//57 93//57 92//57
f 91//58 95//58 96//58 93//58
f 87//59 94//59 96//59 95//59
f 94//60 89//60 90//60 96//60
f 90//61 93//61 96//61
f 1//62 13//62 17//62 4//62
f 4//63 17//63 22//63 8//63
f 8//64 22//64 15//64 2//64
f 2//65 38//65 44//65 7//65
f 7//66 44//66 40//66 11//66
f 11//67 40//67 37//67 3//67
f 3//68 49//68 53//68 10//68
f 10//69 53//69 58//69 5//69
f 5//70 58//70 51//70 1//70
f 14//71 25//71 29//71 19//71
f 19//72 29//72 34//72 23//72
f 23//73 34//73 27//73 15//73
f 13//74 62//74 68//74 16//74
f 16//75 68//75 64//75 20//75
f 20//76 64//76 61//76 14//76
f 26//77 39//77 47//77 31//77
f 31//78 47//78 43//78 35//78
f 35//79 43//79 38//79 27//79
f 25//80 74//80 80//80 28//80
f 28//81 80//81 76//81 32//81
f 32//82 76//82 73//82 26//82
f 39//83 85//83 89//83 46//83
f 46//84 89//84 94//84 41//84
f 41//85 94//85 87//85 37//85
f 50//86 63//86 71//86 55//86
f 55//87 71//87 67//87 59//87
f 59//88 67//88 62//88 51//88
f 49//89 87//89 95//89 52//89
f 52//90 95//90 91//90 56//90
f 56//91 91//91 86//91 50//91
f 63//92 75//92 83//92 70//92
f 70//93 83//93 79//93 65//93
f 65//94 79//94 74//94 61//94
f 75//95 86//95 92//95 82//95
f 82//96 92//96 88//96 77//96
f 77//97 88//97 85//97 73//97
f 1//98 51//98 62//98 13//98
